<svg preserveAspectRatio="xMidYMid meet" width="100%" height="100%" overflow="visible" style="display: block;" viewBox="0 0 28 28" fill="none" xmlns="http://www.w3.org/2000/svg">
<g id="ico-/-24-/-devices-/-ai-video">
<path id="Icon-color" d="M16.333 11.667C17.5295 11.667 18.4998 12.6365 18.5 13.833V17.083L21.4355 14.1475C21.6373 13.9473 21.9101 13.8342 22.1943 13.833H22.292C22.591 13.8332 22.833 14.076 22.833 14.375V24.125C22.833 24.424 22.591 24.6668 22.292 24.667H22.1943C21.9101 24.6658 21.6373 24.5527 21.4355 24.3525L18.5 21.417V24.667C18.4998 25.8635 17.5295 26.833 16.333 26.833H3.33301C2.13664 26.8328 1.16716 25.8634 1.16699 24.667V13.833C1.16718 12.6367 2.13665 11.6672 3.33301 11.667H16.333ZM4.95801 16.1299C4.659 16.1301 4.41699 16.3728 4.41699 16.6719V17.4951C4.41705 17.7941 4.65904 18.0369 4.95801 18.0371H9.29199C9.59096 18.0369 9.83295 17.7941 9.83301 17.4951V16.6719C9.83301 16.3728 9.591 16.1301 9.29199 16.1299H4.95801ZM23.6084 4.60254C23.7031 4.17492 24.3115 4.17492 24.4063 4.60254L24.6709 5.79297C24.7529 6.16293 25.0422 6.45212 25.4121 6.53418L26.6035 6.79883C27.0309 6.89364 27.0309 7.50284 26.6035 7.59766L25.4121 7.8623C25.0422 7.94436 24.7529 8.23355 24.6709 8.60352L24.4063 9.79395C24.3115 10.2216 23.7031 10.2216 23.6084 9.79395L23.3438 8.60352C23.2617 8.23353 22.9725 7.94434 22.6025 7.8623L21.4111 7.59766C20.9838 7.50281 20.9838 6.89367 21.4111 6.79883L22.6025 6.53418C22.9725 6.45214 23.2617 6.16295 23.3438 5.79297L23.6084 4.60254ZM14.2129 0.453125C14.3473 -0.151036 15.2084 -0.151048 15.3428 0.453125L15.8555 2.76074C15.9041 2.98007 16.0756 3.15158 16.2949 3.2002L18.6025 3.71289C19.2066 3.84734 19.2066 4.70834 18.6025 4.84277L16.2949 5.35547C16.0755 5.4041 15.9041 5.57555 15.8555 5.79492L15.3428 8.10254C15.2083 8.70658 14.3473 8.70656 14.2129 8.10254L13.7002 5.79492C13.6516 5.57557 13.4801 5.40413 13.2607 5.35547L10.9531 4.84277C10.349 4.7084 10.349 3.84728 10.9531 3.71289L13.2607 3.2002C13.4801 3.15155 13.6515 2.98005 13.7002 2.76074L14.2129 0.453125Z" fill="var(--fill-0, white)"/>
<g id="bounding_box:c2all">
</g>
</g>
</svg>
