<svg preserveAspectRatio="xMidYMid meet" width="100%" height="100%" overflow="visible" style="display: block;" viewBox="0 0 28 28" fill="none" xmlns="http://www.w3.org/2000/svg">
<g id="ico-/-24-/-media-&#38;-editing-/-crop">
<path id="Icon-color" d="M2.91667 8.16667C2.5945 8.16667 2.33333 7.9055 2.33333 7.58333V6.41667C2.33333 6.0945 2.5945 5.83333 2.91667 5.83333H5.83333V2.91667C5.83333 2.5945 6.0945 2.33333 6.41667 2.33333H7.58333C7.9055 2.33333 8.16667 2.5945 8.16667 2.91667V5.83333H19.8333C21.122 5.83333 22.1667 6.878 22.1667 8.16667V17.5H19.8333V8.16667H2.91667ZM25.0833 19.8333H8.16667V10.5H5.83333V19.8333C5.83333 21.122 6.878 22.1667 8.16667 22.1667H19.8333V25.0833C19.8333 25.4055 20.0945 25.6667 20.4167 25.6667H21.5833C21.9055 25.6667 22.1667 25.4055 22.1667 25.0833V22.1667H25.0833C25.4055 22.1667 25.6667 21.9055 25.6667 21.5833V20.4167C25.6667 20.0945 25.4055 19.8333 25.0833 19.8333Z" fill="var(--fill-0, white)"/>
<g id="bounding_box:c2all">
</g>
</g>
</svg>
