<svg preserveAspectRatio="none" width="100%" height="100%" overflow="visible" style="display: block;" viewBox="0 0 16 16" fill="none" xmlns="http://www.w3.org/2000/svg">
<g id="ico-/-24-/-arrows-/-chevron_left">
<path id="Icon-color" d="M5.48 8.48C5.38621 8.38632 5.33345 8.25923 5.33333 8.12667V7.87333C5.33487 7.74106 5.38741 7.61448 5.48 7.52L8.90667 4.1C8.96926 4.0369 9.05445 4.0014 9.14333 4.0014C9.23221 4.0014 9.31741 4.0369 9.38 4.1L9.85333 4.57333C9.91604 4.63478 9.95138 4.71887 9.95138 4.80667C9.95138 4.89446 9.91604 4.97856 9.85333 5.04L6.88667 8L9.85333 10.96C9.91644 11.0226 9.95193 11.1078 9.95193 11.1967C9.95193 11.2855 9.91644 11.3707 9.85333 11.4333L9.38 11.9C9.31741 11.9631 9.23221 11.9986 9.14333 11.9986C9.05445 11.9986 8.96926 11.9631 8.90667 11.9L5.48 8.48Z" fill="var(--fill-0, white)"/>
<g id="bounding_box:c2all">
</g>
</g>
</svg>
