<svg preserveAspectRatio="none" width="100%" height="100%" overflow="visible" style="display: block;" viewBox="0 0 16 16" fill="none" xmlns="http://www.w3.org/2000/svg">
<g id="ico-/-24-/-arrows-/-chevron_right">
<path id="Icon-color" d="M10.52 7.52C10.6138 7.61368 10.6665 7.74077 10.6667 7.87333V8.12667C10.6651 8.25894 10.6126 8.38552 10.52 8.48L7.09333 11.9C7.03074 11.9631 6.94555 11.9986 6.85667 11.9986C6.76779 11.9986 6.68259 11.9631 6.62 11.9L6.14667 11.4267C6.08396 11.3652 6.04862 11.2811 6.04862 11.1933C6.04862 11.1055 6.08396 11.0214 6.14667 10.96L9.11333 8L6.14667 5.04C6.08356 4.97741 6.04807 4.89221 6.04807 4.80333C6.04807 4.71445 6.08356 4.62926 6.14667 4.56667L6.62 4.1C6.68259 4.0369 6.76779 4.0014 6.85667 4.0014C6.94555 4.0014 7.03074 4.0369 7.09333 4.1L10.52 7.52Z" fill="var(--fill-0, white)"/>
<g id="bounding_box:c2all">
</g>
</g>
</svg>
