<svg preserveAspectRatio="none" width="100%" height="100%" overflow="visible" style="display: block;" viewBox="0 0 24 24" fill="none" xmlns="http://www.w3.org/2000/svg">
<g id="ico-/-24-/-arrows-/-chevron_down">
<path id="Icon-color" d="M12.72 15.78C12.5795 15.9207 12.3888 15.9998 12.19 16H11.81C11.6116 15.9977 11.4217 15.9189 11.28 15.78L6.15 10.64C6.05534 10.5461 6.0021 10.4183 6.0021 10.285C6.0021 10.1517 6.05534 10.0239 6.15 9.93L6.86 9.22C6.95216 9.12594 7.07831 9.07293 7.21 9.07293C7.34169 9.07293 7.46784 9.12594 7.56 9.22L12 13.67L16.44 9.22C16.5339 9.12534 16.6617 9.0721 16.795 9.0721C16.9283 9.0721 17.0561 9.12534 17.15 9.22L17.85 9.93C17.9447 10.0239 17.9979 10.1517 17.9979 10.285C17.9979 10.4183 17.9447 10.5461 17.85 10.64L12.72 15.78Z" fill="var(--fill-0, #191919)"/>
<g id="bounding_box:c2all">
</g>
</g>
</svg>
