<svg preserveAspectRatio="xMidYMid meet" width="100%" height="100%" overflow="visible" style="display: block;" viewBox="0 0 115.667 15" fill="none" xmlns="http://www.w3.org/2000/svg">
<g id="elevenlabs-logo-black 1" clip-path="url(#clip0_0_113605)">
<path id="Vector" d="M41.3768 3.69835H38.411L41.9947 14.7521H45.1872L48.7708 3.69835H45.805L43.5608 12.0248L41.3768 3.69835Z" fill="var(--fill-0, #666666)"/>
<path id="Vector_2" d="M0 0H3.06883V14.7521H0V0Z" fill="var(--fill-0, #666666)"/>
<path id="Vector_3" d="M6.09647 0H9.16528V14.7521H6.09647V0Z" fill="var(--fill-0, #666666)"/>
<path id="Vector_4" d="M12.1925 0H21.2753V2.45868H15.2613V5.97107H20.8635V8.42975H15.2613V12.2934H21.2753V14.7521H12.1925V0Z" fill="var(--fill-0, #666666)"/>
<path id="Vector_5" d="M23.1493 0H26.0533V14.7521H23.1493V0Z" fill="var(--fill-0, #666666)"/>
<path id="Vector_6" d="M27.804 9.21488C27.804 5.18595 29.8018 3.45042 32.9118 3.45042C36.0218 3.45042 37.7932 5.16528 37.7932 9.2562V9.91735H30.6668C30.7698 12.314 31.4907 13.1198 32.8707 13.1198C33.9622 13.1198 34.6418 12.4793 34.7655 11.3636H37.6695C37.4842 13.8016 35.4658 15 32.8707 15C29.5753 15 27.804 13.2438 27.804 9.21488ZM34.9303 7.99587C34.7862 5.97107 34.0858 5.30992 32.8707 5.30992C31.6555 5.30992 30.8933 5.99173 30.6875 7.99587H34.9303Z" fill="var(--fill-0, #666666)"/>
<path id="Vector_7" d="M49.327 9.21488C49.327 5.18595 51.3248 3.45042 54.4348 3.45042C57.5448 3.45042 59.3162 5.16528 59.3162 9.2562V9.91735H52.1898C52.2928 12.314 53.0137 13.1198 54.3937 13.1198C55.4852 13.1198 56.1648 12.4793 56.2885 11.3636H59.1925C59.0072 13.8016 56.9887 15 54.3937 15C51.0982 15 49.327 13.2438 49.327 9.21488ZM56.4532 7.99587C56.309 5.97107 55.6088 5.30992 54.3937 5.30992C53.1785 5.30992 52.4163 5.99173 52.2105 7.99587H56.4532Z" fill="var(--fill-0, #666666)"/>
<path id="Vector_8" d="M73.0738 0H76.1427V12.2934H81.9095V14.7521H73.0738V0Z" fill="var(--fill-0, #666666)"/>
<path id="Vector_9" fill-rule="evenodd" clip-rule="evenodd" d="M82.6305 9.21488C82.6305 5 84.5665 3.45042 87.0587 3.45042C88.2943 3.45042 89.4272 4.1529 89.8803 4.8967V3.69835H92.8462V14.7521H89.9627V13.4504C89.5302 14.3182 88.315 15 86.9762 15C84.34 15 82.6305 13.3058 82.6305 9.21488ZM87.8207 5.61983C89.2623 5.61983 90.045 6.71488 90.045 9.21488C90.045 11.7149 89.2623 12.8306 87.8207 12.8306C86.379 12.8306 85.5552 11.7149 85.5552 9.21488C85.5552 6.71488 86.379 5.61983 87.8207 5.61983Z" fill="var(--fill-0, #666666)"/>
<path id="Vector_10" fill-rule="evenodd" clip-rule="evenodd" d="M97.9745 13.4504V14.7521H95.0912V0H97.9952V4.8967C98.4895 4.13223 99.6428 3.45042 100.879 3.45042C103.309 3.45042 105.245 5 105.245 9.21488C105.245 13.4298 103.35 15 100.817 15C99.4782 15 98.3865 14.3182 97.9745 13.4504ZM100.055 5.6405C101.497 5.6405 102.32 6.71488 102.32 9.21488C102.32 11.7149 101.497 12.8306 100.055 12.8306C98.613 12.8306 97.8303 11.7149 97.8303 9.21488C97.8303 6.71488 98.613 5.6405 100.055 5.6405Z" fill="var(--fill-0, #666666)"/>
<path id="Vector_11" d="M106.44 11.4669H109.344C109.385 12.624 110.003 13.1818 111.094 13.1818C112.186 13.1818 112.804 12.6859 112.804 11.8182C112.804 11.033 112.33 10.7438 111.3 10.4959L110.415 10.2686C107.902 9.6281 106.645 8.94628 106.645 6.8595C106.645 4.77273 108.582 3.45042 111.053 3.45042C113.525 3.45042 115.399 4.42148 115.481 6.71488H112.577C112.516 5.70248 111.898 5.2686 111.012 5.2686C110.126 5.2686 109.508 5.70248 109.508 6.52893C109.508 7.29338 110.003 7.58265 110.868 7.78925L111.774 8.01653C114.163 8.6157 115.667 9.21488 115.667 11.4463C115.667 13.6777 113.69 15 111.012 15C108.108 15 106.501 13.9049 106.44 11.4669Z" fill="var(--fill-0, #666666)"/>
<path id="Vector_12" d="M64.012 8.2438C64.012 6.50827 64.8358 5.55785 66.1128 5.55785C67.1632 5.55785 67.7605 6.219 67.7605 7.64463V14.7521H70.6645V7.19008C70.6645 4.6281 69.2228 3.45042 67.122 3.45042C65.7008 3.45042 64.527 4.17355 64.012 5.12397V3.69835H61.0668V14.7521H64.012V8.2438Z" fill="var(--fill-0, #666666)"/>
</g>
<defs>
<clipPath id="clip0_0_113605">
<rect width="115.667" height="15" fill="white"/>
</clipPath>
</defs>
</svg>
