<svg preserveAspectRatio="xMidYMid meet" width="100%" height="100%" overflow="visible" style="display: block;" viewBox="0 0 96.5268 18" fill="none" xmlns="http://www.w3.org/2000/svg">
<g id="Group 27392">
<path id="Vector" d="M92.8834 16.9458V1.07996H96.5268V16.9458H92.8834Z" fill="var(--fill-0, #666666)"/>
<path id="Vector_2" d="M76.7966 16.9458L82.0494 1.07996H86.7652L91.9506 16.9458H88.1731L87.078 13.4176H81.2893L80.1941 16.9458H76.7966ZM84.1952 4.00901L82.0712 10.8657H86.2956L84.1952 4.00901Z" fill="var(--fill-0, #666666)"/>
<path id="Vector_3" d="M66.2155 17.19C64.0921 17.19 62.304 16.1692 62.304 13.7284C62.304 11.0212 64.8073 10.0005 68.3835 10.0005H69.7023V9.53444C69.7023 8.1587 69.2776 7.40423 67.8025 7.40423C66.5284 7.40423 65.9473 8.04773 65.8131 9.04628H62.751C62.9522 6.29471 65.1427 5.07431 68.0036 5.07431C70.8646 5.07431 72.8985 6.2282 72.8985 9.3791V16.9459H69.747V15.548C69.0764 16.4799 68.0483 17.19 66.2155 17.19ZM67.1766 14.9488C68.6071 14.9488 69.7023 14.1721 69.7023 12.8851V11.9088H68.4506C66.5731 11.9088 65.4779 12.3082 65.4779 13.5509C65.4779 14.3941 65.992 14.9488 67.1766 14.9488Z" fill="var(--fill-0, #666666)"/>
<path id="Vector_4" d="M43.9662 16.9459V5.34053H47.2071V7.11578C47.7883 6.02849 49.0399 5.07431 50.7833 5.07431C52.3256 5.07431 53.4879 5.71781 54.0466 7.09355C54.9854 5.69558 56.5053 5.07431 57.9804 5.07431C60.1485 5.07431 61.8249 6.42791 61.8249 9.5123V16.9459H58.6063V9.86735C58.6063 8.38055 57.9357 7.71491 56.7734 7.71491C55.5218 7.71491 54.516 8.51375 54.516 10.0892V16.9459H51.2974V9.86735C51.2974 8.38055 50.6045 7.71491 49.4646 7.71491C48.2129 7.71491 47.2071 8.51375 47.2071 10.0892V16.9459H43.9662Z" fill="var(--fill-0, #666666)"/>
<path id="Vector_5" d="M36.1223 17.1899C33.8425 17.1899 32.1438 15.8585 32.1438 12.8185V5.34045H35.3624V12.3747C35.3624 13.9501 36.0106 14.7046 37.3963 14.7046C38.7597 14.7046 39.8326 13.8614 39.8326 12.1527V5.34045H43.0512V16.9458H39.8326V15.1262C39.2291 16.3023 38.0445 17.1899 36.1223 17.1899Z" fill="var(--fill-0, #666666)"/>
<path id="Vector_6" d="M21.5755 16.9458V1.07996H25.1964V14.1277H31.7007V16.9458H21.5755Z" fill="var(--fill-0, #666666)"/>
<path id="Vector_7" d="M0 13.5L7.84158 18V0L0 4.5V13.5Z" fill="var(--fill-0, #666666)"/>
<path id="Vector_8" d="M7.84158 18L15.6832 13.5L7.84158 9L0 13.5L7.84158 18Z" fill="var(--fill-0, #666666)"/>
</g>
</svg>
