<svg preserveAspectRatio="none" width="100%" height="100%" overflow="visible" style="display: block;" viewBox="0 0 156.45 135.092" fill="none" xmlns="http://www.w3.org/2000/svg">
<g id="ico-/-24-/-GenAI-/-ImageGen">
<path id="Ellipse 214 (Stroke)" d="M54.4194 23.8079C54.4194 16.2945 48.3278 10.2032 40.8145 10.203C33.3011 10.203 27.2097 16.2944 27.2097 23.8079C27.2099 31.3212 33.3012 37.4127 40.8145 37.4127V47.6158L39.5899 47.5848C27.416 46.9681 17.6547 37.2063 17.0377 25.0325L17.0067 23.8079C17.0067 10.6593 27.666 0 40.8145 0L42.0392 0.0310341C54.6185 0.668592 64.6224 11.0702 64.6224 23.8079L64.5914 25.0325C63.9538 37.6117 53.5521 47.6156 40.8145 47.6158V37.4127C48.3277 37.4126 54.4192 31.3211 54.4194 23.8079Z" fill="var(--fill-0, #87E64B)"/>
<path id="Subtract (Stroke)" d="M133.544 124.889V135.092H22.9055V124.889H133.544ZM146.247 112.189V72.9765L123.79 51.5773L67.6088 106.386L41.1893 80.6109L10.203 109.625V112.189L10.2197 112.843C10.5607 119.553 16.1095 124.889 22.9055 124.889V135.092C10.2557 135.092 0.000616089 124.839 0 112.189V105.202L41.3349 66.4999L67.6088 92.1317L123.706 37.4067L156.45 68.6079V112.189C156.449 124.839 146.194 135.092 133.544 135.092V124.889C140.34 124.889 145.889 119.553 146.23 112.843L146.247 112.189Z" fill="var(--fill-0, #666666)"/>
</g>
</svg>
