<svg preserveAspectRatio="none" width="100%" height="100%" overflow="visible" style="display: block;" viewBox="0 0 156.45 149.283" fill="none" xmlns="http://www.w3.org/2000/svg">
<g id="ico-/-24-/-GenAI-/-ImageEdit">
<path id="Vector 322 (Stroke)" d="M22.9363 27.7899C24.0886 19.3392 31.8739 13.4215 40.3246 14.5739L119.193 25.3292C125.108 26.1361 130.027 30.2801 131.828 35.9714C133.629 41.6635 131.988 47.8848 127.613 51.9472L66.7087 108.499L138.089 94.7748C146.465 93.1647 154.558 98.6481 156.169 107.023C157.78 115.399 152.296 123.495 143.921 125.105L19.6436 149.004C12.8781 150.305 6.06928 146.967 2.95398 140.822C-0.16131 134.677 1.17019 127.21 6.21901 122.521L82.6795 51.5224L36.1497 45.1783C27.6997 44.0255 21.7841 36.2402 22.9363 27.7899Z" fill="var(--fill-0, #666666)"/>
<path id="Ellipse 215" d="M54.9687 27.4845C54.9687 42.6637 42.6635 54.9689 27.4843 54.9689C12.3052 54.9689 0 42.6637 0 27.4845C0 12.3052 12.3052 0 27.4843 0C42.6635 0 54.9687 12.3052 54.9687 27.4845Z" fill="var(--fill-0, #191919)"/>
<path id="Ellipse 215 (Stroke)" d="M45.4088 27.4852C45.4088 17.5859 37.3842 9.55924 27.4851 9.55886C17.5856 9.55886 9.55882 17.5857 9.55882 27.4852C9.5592 37.3844 17.5858 45.409 27.4851 45.409V54.9679L26.07 54.9327C12.0162 54.2202 0.747039 42.9518 0.0351889 28.8978L0 27.4852C0 12.3059 12.3059 0 27.4851 0L28.8976 0.0351891C43.42 0.770772 54.9676 12.7799 54.9676 27.4852L54.9324 28.8978C54.1968 43.42 42.1899 54.9675 27.4851 54.9679V45.409C37.384 45.4086 45.4084 37.3841 45.4088 27.4852Z" fill="var(--fill-0, #87E64B)"/>
</g>
</svg>
