<svg preserveAspectRatio="none" width="100%" height="100%" overflow="visible" style="display: block;" viewBox="0 0 108.405 156.45" fill="none" xmlns="http://www.w3.org/2000/svg">
<g id="ico-/-24-/-GenAI-/-VoiceGen">
<path id="Vector" d="M54.8182 108.405C38.1583 108.405 24.6372 94.9148 24.6372 78.2926V30.1125C24.6372 13.4904 38.1583 0 54.8182 0C71.4781 0 84.9991 13.4904 84.9991 30.1125V78.2926C84.9991 94.9148 71.4781 108.405 54.8182 108.405ZM72.9267 30.1125C72.9267 20.1553 64.798 12.045 54.8182 12.045C44.8383 12.045 36.7096 20.1553 36.7096 30.1125V78.2926C36.7096 88.2498 44.8383 96.3602 54.8182 96.3602C64.798 96.3602 72.9267 88.2498 72.9267 78.2926V30.1125Z" fill="var(--fill-0, #87E64B)"/>
<path id="Vector_2" d="M12.045 70.2184V78.2399C12.045 101.502 30.9958 120.353 54.2026 120.353C77.4093 120.353 96.3602 101.502 96.3602 78.2399V70.2184H108.405V78.2399C108.405 106.075 87.2862 129.016 60.2251 132.064V144.417H78.2926V156.45H38.1426H30.1126V144.417H38.1426H48.1801V132.064C21.1189 129.096 0 106.075 0 78.2399V70.2184H12.045Z" fill="var(--fill-0, #666666)"/>
</g>
</svg>
