<svg preserveAspectRatio="none" width="100%" height="100%" overflow="visible" style="display: block;" viewBox="0 0 156.45 118.455" fill="none" xmlns="http://www.w3.org/2000/svg">
<g id="ico-/-24-/-GenAI-/-SoundGen">
<path id="Vector" d="M156.45 62.4771H0V71.5825H156.45V62.4771Z" fill="#666666"/>
<path id="Vector_2" d="M78.2319 118.455C66.6711 118.455 62.897 99.5995 58.1127 75.7433C56.2186 66.2876 54.2544 56.4958 51.8974 49.4355C49.0914 41.0165 46.9588 40.3441 46.9307 40.3441C43.6196 40.3441 42.2166 42.7816 39.3685 50.5982C36.1556 59.4515 31.7501 71.5828 15.6295 71.5828H0V62.4773H15.6436C24.8894 62.4773 27.4289 56.7899 30.7961 47.5024C33.4197 40.2601 36.7028 31.2387 46.9307 31.2387C58.4915 31.2387 62.2656 50.0939 67.0499 73.9502C68.944 83.4059 70.9082 93.1977 73.2652 100.258C75.5802 107.192 77.4322 108.873 78.0355 109.251C82.6794 105.357 86.8464 76.1775 89.3718 58.583C94.8576 20.088 98.2669 0 109.519 0C120.771 0 123.03 14.6948 125.85 30.2581C128.586 45.3591 131.701 62.4773 140.806 62.4773H156.45V71.5828H140.806C124.082 71.5828 120.252 50.4862 116.871 31.8831C115.468 24.1504 112.886 9.95995 109.8 9.13346C105.128 12.7476 100.919 42.1792 98.3931 59.8578C92.8793 98.3528 89.484 118.441 78.2319 118.441V118.455Z" fill="#666666"/>
<path id="Vector_3" d="M112.072 71.5825H78.2171C75.7057 71.5825 73.6573 69.5373 73.6573 67.0298C73.6573 64.5223 75.7057 62.4771 78.2171 62.4771H112.072C114.583 62.4771 116.632 64.5223 116.632 67.0298C116.632 69.5373 114.583 71.5825 112.072 71.5825Z" fill="#666666"/>
<path id="Vector_4" d="M41.8518 62.4771H0V71.5825H41.8518V62.4771Z" fill="#666666"/>
</g>
</svg>
