<svg preserveAspectRatio="xMidYMid meet" width="100%" height="100%" overflow="visible" style="display: block;" viewBox="0 0 108.405 156.45" fill="none" xmlns="http://www.w3.org/2000/svg">
<g id="ico-/-24-/-GenAI-/-VoiceGen">
<path id="Vector" d="M54.8182 108.405C38.1583 108.405 24.6373 94.9148 24.6373 78.2926V30.1125C24.6373 13.4904 38.1583 0 54.8182 0C71.4782 0 84.9992 13.4904 84.9992 30.1125V78.2926C84.9992 94.9148 71.4782 108.405 54.8182 108.405ZM72.9268 30.1125C72.9268 20.1553 64.7981 12.045 54.8182 12.045C44.8384 12.045 36.7097 20.1553 36.7097 30.1125V78.2926C36.7097 88.2498 44.8384 96.3602 54.8182 96.3602C64.7981 96.3602 72.9268 88.2498 72.9268 78.2926V30.1125Z" fill="#666666"/>
<path id="Vector_2" d="M12.0451 70.2184V78.2399C12.0451 101.502 30.9959 120.353 54.2027 120.353C77.4094 120.353 96.3602 101.502 96.3602 78.2399V70.2184H108.405V78.2399C108.405 106.075 87.2863 129.016 60.2252 132.064V144.417H78.2927V156.45H38.1427H30.1126V144.417H38.1427H48.1802V132.064C21.119 129.096 9.04e-05 106.075 9.04e-05 78.2399V70.2184H12.0451Z" fill="#666666"/>
</g>
</svg>
