<svg preserveAspectRatio="none" width="100%" height="100%" overflow="visible" style="display: block;" viewBox="0 0 13.3334 11.5133" fill="none" xmlns="http://www.w3.org/2000/svg">
<g id="ico-/-24-/-GenAI-/-ImageGen">
<path id="Ellipse 214 (Stroke)" d="M4.63786 2.02901C4.63786 1.38869 4.11871 0.869562 3.47839 0.869548C2.83806 0.869548 2.31893 1.38868 2.31893 2.02901C2.31894 2.66933 2.83807 3.18848 3.47839 3.18848V4.05803L3.37402 4.05538C2.33651 4.00283 1.50461 3.17089 1.45203 2.13338L1.44938 2.02901C1.44938 0.908435 2.35782 0 3.47839 0L3.58276 0.00264486C4.65483 0.0569803 5.50741 0.943448 5.50741 2.02901L5.50476 2.13338C5.45043 3.20544 4.56395 4.05801 3.47839 4.05803V3.18848C4.1187 3.18846 4.63784 2.66932 4.63786 2.02901Z" fill="var(--fill-0, #666666)"/>
<path id="Subtract (Stroke)" d="M11.3812 10.6436V11.5132H1.95211V10.6436H11.3812ZM12.4638 9.56126V6.21938L10.5499 4.39565L5.76192 9.06667L3.51034 6.87001L0.869548 9.34275V9.56126L0.870972 9.617C0.900033 10.1889 1.37292 10.6436 1.95211 10.6436V11.5132C0.874033 11.5132 5.25058e-05 10.6393 0 9.56126V8.96576L3.52275 5.66742L5.76192 7.85187L10.5428 3.18796L13.3333 5.84706V9.56126C13.3333 10.6393 12.4593 11.5132 11.3812 11.5132V10.6436C11.9604 10.6436 12.4333 10.1889 12.4624 9.617L12.4638 9.56126Z" fill="var(--fill-0, #666666)"/>
</g>
</svg>
