<svg preserveAspectRatio="none" width="100%" height="100%" overflow="visible" style="display: block;" viewBox="0 0 13.3334 12.7227" fill="none" xmlns="http://www.w3.org/2000/svg">
<g id="ico-/-24-/-GenAI-/-ImageEdit">
<path id="Vector 322 (Stroke)" d="M1.95476 2.36846C2.05297 1.64825 2.71647 1.14392 3.43667 1.24213L10.1582 2.15875C10.6623 2.22751 11.0815 2.58069 11.235 3.06572C11.3885 3.55083 11.2486 4.08103 10.8758 4.42725L5.68524 9.24681L11.7686 8.07721C12.4824 7.93998 13.1722 8.4073 13.3094 9.12106C13.4467 9.83486 12.9794 10.5248 12.2656 10.6621L1.67414 12.6988C1.09756 12.8097 0.517283 12.5253 0.251783 12.0016C-0.0137152 11.4778 0.0997608 10.8414 0.530043 10.4419L7.04634 4.39105L3.08087 3.85038C2.36072 3.75213 1.85657 3.08863 1.95476 2.36846Z" fill="var(--fill-0, #666666)"/>
<path id="Ellipse 215" d="M4.6847 2.34243C4.6847 3.63607 3.63601 4.68478 2.34237 4.68478C1.04873 4.68478 3.24249e-05 3.63607 3.24249e-05 2.34243C3.24249e-05 1.04879 1.04873 8.13007e-05 2.34237 8.13007e-05C3.63601 8.13007e-05 4.6847 1.04879 4.6847 2.34243Z" fill="var(--fill-0, #666666)"/>
<path id="Ellipse 215 (Stroke)" d="M3.86997 2.34249C3.86997 1.49883 3.18608 0.814762 2.34243 0.814729C1.49875 0.814729 0.814677 1.49881 0.814677 2.34249C0.814709 3.18614 1.49877 3.87003 2.34243 3.87003V4.68468L2.22183 4.68168C1.0241 4.62097 0.0636984 3.66062 0.00303138 2.46288L3.24249e-05 2.34249C3.24249e-05 1.04885 1.04879 8.13007e-05 2.34243 8.13007e-05L2.46282 0.00308027C3.70048 0.0657698 4.68461 1.08924 4.68461 2.34249L4.68161 2.46288C4.61892 3.70052 3.59564 4.68465 2.34243 4.68468V3.87003C3.18606 3.87 3.86993 3.18612 3.86997 2.34249Z" fill="var(--fill-0, #666666)"/>
</g>
</svg>
