<svg preserveAspectRatio="xMidYMid meet" width="100%" height="100%" overflow="visible" style="display: block;" viewBox="0 0 32 32" fill="none" xmlns="http://www.w3.org/2000/svg">
<g id="ico-/-24-/-other-/-movie">
<path id="Icon-color" d="M27.3333 4H26C25.6318 4 25.3333 4.29848 25.3333 4.66667V6C25.3333 6.36819 25.0349 6.66667 24.6667 6.66667H23.3333C22.9651 6.66667 22.6667 6.36819 22.6667 6V4.66667C22.6667 4.29848 22.3682 4 22 4H10C9.63181 4 9.33333 4.29848 9.33333 4.66667V6C9.33333 6.36819 9.03486 6.66667 8.66667 6.66667H7.33333C6.96514 6.66667 6.66667 6.36819 6.66667 6V4.66667C6.66667 4.29848 6.36819 4 6 4H4.66667C4.29848 4 4 4.29848 4 4.66667V27.3333C4 27.7015 4.29848 28 4.66667 28H6C6.36819 28 6.66667 27.7015 6.66667 27.3333V26C6.66667 25.6318 6.96514 25.3333 7.33333 25.3333H8.66667C9.03486 25.3333 9.33333 25.6318 9.33333 26V27.3333C9.33333 27.7015 9.63181 28 10 28H22C22.3682 28 22.6667 27.7015 22.6667 27.3333V26C22.6667 25.6318 22.9651 25.3333 23.3333 25.3333H24.6667C25.0349 25.3333 25.3333 25.6318 25.3333 26V27.3333C25.3333 27.7015 25.6318 28 26 28H27.3333C27.7015 28 28 27.7015 28 27.3333V4.66667C28 4.29848 27.7015 4 27.3333 4ZM9.33333 22C9.33333 22.3682 9.03486 22.6667 8.66667 22.6667H7.33333C6.96514 22.6667 6.66667 22.3682 6.66667 22V18C6.66667 17.6318 6.96514 17.3333 7.33333 17.3333H8.66667C9.03486 17.3333 9.33333 17.6318 9.33333 18V22ZM9.33333 14C9.33333 14.3682 9.03486 14.6667 8.66667 14.6667H7.33333C6.96514 14.6667 6.66667 14.3682 6.66667 14V10C6.66667 9.63181 6.96514 9.33333 7.33333 9.33333H8.66667C9.03486 9.33333 9.33333 9.63181 9.33333 10V14ZM25.3333 22C25.3333 22.3682 25.0349 22.6667 24.6667 22.6667H23.3333C22.9651 22.6667 22.6667 22.3682 22.6667 22V18C22.6667 17.6318 22.9651 17.3333 23.3333 17.3333H24.6667C25.0349 17.3333 25.3333 17.6318 25.3333 18V22ZM25.3333 14C25.3333 14.3682 25.0349 14.6667 24.6667 14.6667H23.3333C22.9651 14.6667 22.6667 14.3682 22.6667 14V10C22.6667 9.63181 22.9651 9.33333 23.3333 9.33333H24.6667C25.0349 9.33333 25.3333 9.63181 25.3333 10V14Z" fill="var(--fill-0, white)"/>
<g id="bounding_box:c2all">
</g>
</g>
</svg>
