<svg preserveAspectRatio="none" width="100%" height="100%" overflow="visible" style="display: block;" viewBox="0 0 12.7776 9.72236" fill="none" xmlns="http://www.w3.org/2000/svg">
<g id="Main Content">
<path id="Background (Stroke)" d="M10.8548 8.84797V9.72228H1.92279V8.84797H10.8548ZM11.9032 7.79949V1.70774H0.874306V7.79949C0.874352 8.37851 1.34376 8.84797 1.92279 8.84797V9.72228L1.82375 9.71972C0.840611 9.66984 0.0523837 8.88147 0.00256144 7.89832L0 7.79949V0.833435H12.7775V7.79949L12.775 7.89832C12.7252 8.88148 11.9369 9.66986 10.9538 9.71972L10.8548 9.72228V8.84797C11.4338 8.84797 11.9032 8.37851 11.9032 7.79949Z" fill="var(--fill-0, #666666)"/>
<path id="Polygon 2 (Stroke)" d="M4.48183 7.67766L4.48183 2.31422L9.12679 4.99583L4.48183 7.67766ZM5.35613 3.82846L5.35613 6.16342L7.37839 4.99583L5.35613 3.82846Z" fill="var(--fill-0, #666666)"/>
<path id="Divider" d="M8.13007e-05 0H0.277855V1.94441H8.13007e-05V0Z" fill="var(--fill-0, #666666)"/>
</g>
</svg>
