<svg preserveAspectRatio="none" width="100%" height="100%" overflow="visible" style="display: block;" viewBox="0 0 16 16" fill="none" xmlns="http://www.w3.org/2000/svg">
<g id="ico-/-24-/-arrows-/-chevron_down">
<path id="Icon-color" d="M12.4785 10.52C12.3849 10.6138 12.2578 10.6665 12.1252 10.6667H11.8719C11.7396 10.6651 11.613 10.6126 11.5185 10.52L8.09854 7.09333C8.03543 7.03074 7.99994 6.94555 7.99994 6.85667C7.99994 6.76779 8.03543 6.68259 8.09854 6.62L8.57187 6.14667C8.63331 6.08396 8.71741 6.04862 8.8052 6.04862C8.89299 6.04862 8.97709 6.08396 9.03853 6.14667L11.9985 9.11333L14.9585 6.14667C15.0211 6.08356 15.1063 6.04807 15.1952 6.04807C15.2841 6.04807 15.3693 6.08356 15.4319 6.14667L15.8985 6.62C15.9616 6.68259 15.9971 6.76779 15.9971 6.85667C15.9971 6.94555 15.9616 7.03074 15.8985 7.09333L12.4785 10.52Z" fill="var(--fill-0, #CCCCCC)"/>
<g id="bounding_box:c2all">
</g>
</g>
</svg>
