<svg preserveAspectRatio="none" width="100%" height="100%" overflow="visible" style="display: block;" viewBox="0 0 19.1664 14.5834" fill="none" xmlns="http://www.w3.org/2000/svg">
<g id="Main Content">
<path id="Background (Stroke)" d="M16.2821 13.272V14.5834H2.88418V13.272H16.2821ZM17.8549 11.6992V2.56161H1.31146V11.6992C1.31153 12.5678 2.01564 13.272 2.88418 13.272V14.5834L2.73562 14.5796C1.26092 14.5048 0.0785755 13.3222 0.00384216 11.8475L0 11.6992V1.25015H19.1663V11.6992L19.1625 11.8475C19.0877 13.3222 17.9054 14.5048 16.4307 14.5796L16.2821 14.5834V13.272C17.1507 13.272 17.8548 12.5678 17.8549 11.6992Z" fill="var(--fill-0, #ABAAAA)"/>
<path id="Polygon 2 (Stroke)" d="M6.72274 11.5165L6.72275 3.47132L13.6902 7.49375L6.72274 11.5165ZM8.0342 5.74268L8.0342 9.24514L11.0676 7.49375L8.0342 5.74268Z" fill="var(--fill-0, #ABAAAA)"/>
<path id="Divider" d="M0.000122037 0H0.416782V2.91662H0.000122037V0Z" fill="var(--fill-0, #ABAAAA)"/>
</g>
</svg>
