<svg preserveAspectRatio="none" width="100%" height="100%" overflow="visible" style="display: block;" viewBox="0 0 20 15.1429" fill="none" xmlns="http://www.w3.org/2000/svg">
<g id="ico-/-24-/-GenAI-/-SoundGen">
<path id="Vector" d="M20 7.98686H0V9.15087H20V7.98686Z" fill="var(--fill-0, #ABAAAA)"/>
<path id="Vector_2" d="M10.0009 15.1429C8.523 15.1429 8.04053 12.7325 7.42893 9.68276C7.1868 8.47398 6.9357 7.22223 6.63438 6.31967C6.27567 5.24341 6.00305 5.15745 5.99946 5.15745C5.57618 5.15745 5.39683 5.46905 5.03273 6.46831C4.62201 7.60008 4.05883 9.1509 1.99803 9.1509H0V7.98689H1.99982C3.18178 7.98689 3.50641 7.25983 3.93687 6.07254C4.27226 5.14671 4.69196 3.99345 5.99946 3.99345C7.47736 3.99345 7.95982 6.40384 8.57143 9.45354C8.81356 10.6623 9.06466 11.9141 9.36598 12.8166C9.66191 13.7031 9.89866 13.918 9.97579 13.9663C10.5695 13.4685 11.1021 9.73828 11.425 7.48905C12.1263 2.56798 12.5621 0 14.0005 0C15.439 0 15.7277 1.87853 16.0882 3.86809C16.438 5.79855 16.8362 7.98689 18.0002 7.98689H20V9.1509H18.0002C15.8623 9.1509 15.3726 6.45398 14.9404 4.07582C14.761 3.08731 14.431 1.27325 14.0364 1.16759C13.4392 1.62961 12.9011 5.39205 12.5782 7.65201C11.8734 12.5731 11.4393 15.1411 10.0009 15.1411V15.1429Z" fill="var(--fill-0, #ABAAAA)"/>
<path id="Vector_3" d="M14.3269 9.15087H9.999C9.67796 9.15087 9.4161 8.88941 9.4161 8.56886C9.4161 8.24831 9.67796 7.98686 9.999 7.98686H14.3269C14.6479 7.98686 14.9098 8.24831 14.9098 8.56886C14.9098 8.88941 14.6479 9.15087 14.3269 9.15087Z" fill="var(--fill-0, #ABAAAA)"/>
<path id="Vector_4" d="M5.35019 7.98686H0V9.15087H5.35019V7.98686Z" fill="var(--fill-0, #ABAAAA)"/>
</g>
</svg>
