<svg preserveAspectRatio="none" width="100%" height="100%" overflow="visible" style="display: block;" viewBox="0 0 11.2396 19.9999" fill="none" xmlns="http://www.w3.org/2000/svg">
<g id="ico-/-24-/-GenAI-/-GraphicGen">
<path id="Line 20 (Stroke)" d="M5.50291 1.26129e-07L11.2396 10.4237L9.27287 16.1579L8.09754 15.7548L9.88561 10.5414L6.12897 3.71453L6.12897 9.31281L4.88676 9.31281L4.88676 3.75355L1.33942 10.3191L2.99714 15.7759L1.8085 16.1369L2.66327e-07 10.1844L5.50291 1.26129e-07Z" fill="var(--fill-0, #ABAAAA)"/>
<path id="Rectangle (Stroke)" d="M9.06578 18.7577V19.9999H2.23831V18.7577H9.06578ZM9.1757 18.6478V16.7306C9.17564 16.67 9.12642 16.621 9.06578 16.621H2.23831C2.17772 16.6211 2.12876 16.67 2.1287 16.7306V18.6478C2.1287 18.7084 2.17768 18.7577 2.23831 18.7577V19.9999C1.49154 19.9999 0.886189 19.3946 0.886189 18.6478L0.886189 16.7306C0.886252 15.9839 1.49158 15.3786 2.23831 15.3785H9.06578C9.81256 15.3785 10.4181 15.9839 10.4182 16.7306V18.6478L10.4164 18.7175C10.3801 19.4319 9.78924 19.9999 9.06578 19.9999V18.7577C9.12646 18.7577 9.1757 18.7085 9.1757 18.6478Z" fill="var(--fill-0, #ABAAAA)"/>
<path id="Union" d="M5.71015 8.30527C7.04553 8.37297 8.10752 9.47707 8.10752 10.8293L8.10412 10.9593C8.03642 12.2947 6.9323 13.3567 5.58011 13.3567L5.45007 13.3533C4.15774 13.2878 3.12162 12.2516 3.0561 10.9593L3.0527 10.8293C3.0527 9.43344 4.18428 8.30186 5.58011 8.30186L5.71015 8.30527ZM5.58011 9.65396C4.93109 9.65396 4.4048 10.1802 4.4048 10.8293C4.40482 11.4783 4.9311 12.0043 5.58011 12.0043C6.22911 12.0043 6.75509 11.4783 6.75511 10.8293C6.75511 10.1803 6.22912 9.65398 5.58011 9.65396Z" fill="var(--fill-0, #ABAAAA)"/>
</g>
</svg>
