<svg preserveAspectRatio="none" width="100%" height="100%" overflow="visible" style="display: block;" viewBox="0 0 19.4245 20" fill="none" xmlns="http://www.w3.org/2000/svg">
<g id="ico-/-24-/-GenAI-/-MusicGen">
<path id="Vector (Stroke)" d="M6.55371 16.738C6.55371 16.0203 5.70708 14.9563 4.017 14.9563C2.32598 14.9563 1.48029 16.0161 1.48029 16.738C1.48033 17.4558 2.32699 18.5194 4.017 18.5194C5.70802 18.5194 6.55367 17.4599 6.55371 16.738ZM8.03434 16.738C8.03431 18.533 6.24439 20 4.017 20C1.78866 20 3.03545e-05 18.5273 0 16.738C0 14.943 1.78961 13.476 4.017 13.476C6.24538 13.476 8.03434 14.9488 8.03434 16.738Z" fill="var(--fill-0, #ABAAAA)"/>
<path id="Vector (Stroke)_2" d="M17.9438 14.828C17.9438 14.1102 17.0972 13.0462 15.4071 13.0462C13.7161 13.0463 12.8704 14.1061 12.8704 14.828C12.8704 15.5457 13.7171 16.6093 15.4071 16.6093C17.0981 16.6093 17.9438 15.5498 17.9438 14.828ZM19.4245 14.828C19.4244 16.623 17.6345 18.09 15.4071 18.09C13.1788 18.09 11.3901 16.6172 11.3901 14.828C11.3901 13.033 13.1797 11.566 15.4071 11.5659C17.6355 11.5659 19.4245 13.0387 19.4245 14.828Z" fill="var(--fill-0, #ABAAAA)"/>
<path id="Vector (Stroke)_3" d="M18.4315 5.60756L7.42626 8.31223L7.07308 6.87436L18.0784 4.17004L18.4315 5.60756Z" fill="var(--fill-0, #ABAAAA)"/>
<path id="Vector (Stroke)_4" d="M19.4241 14.9415H17.9438V1.76276L8.03396 3.50172V16.6888H6.55367V2.25872L19.4241 0V14.9415Z" fill="var(--fill-0, #ABAAAA)"/>
</g>
</svg>
