<svg preserveAspectRatio="none" width="100%" height="100%" overflow="visible" style="display: block;" viewBox="0 0 32 32" fill="none" xmlns="http://www.w3.org/2000/svg">
<g id="ico-/-24-/-actions-/-checkmark_circle_outlined">
<path id="Icon-color" d="M16 2.66667C8.6362 2.66667 2.66667 8.6362 2.66667 16C2.66667 23.3638 8.6362 29.3333 16 29.3333C23.3638 29.3333 29.3333 23.3638 29.3333 16C29.3333 12.4638 27.9286 9.07239 25.4281 6.57191C22.9276 4.07142 19.5362 2.66667 16 2.66667ZM16 26.6667C10.109 26.6667 5.33333 21.891 5.33333 16C5.33333 10.109 10.109 5.33333 16 5.33333C21.891 5.33333 26.6667 10.109 26.6667 16C26.6667 18.829 25.5429 21.5421 23.5425 23.5425C21.5421 25.5429 18.829 26.6667 16 26.6667ZM21.0933 11.32C20.8341 11.0659 20.4192 11.0659 20.16 11.32L13.84 17.64L11.84 15.6533C11.719 15.5244 11.5501 15.4513 11.3733 15.4513C11.1966 15.4513 11.0276 15.5244 10.9067 15.6533L10.2 16.36C10.0738 16.4852 10.0028 16.6556 10.0028 16.8333C10.0028 17.0111 10.0738 17.1815 10.2 17.3067L13.3333 20.4667C13.4543 20.5956 13.6232 20.6687 13.8 20.6687C13.9768 20.6687 14.1457 20.5956 14.2667 20.4667L21.76 12.9733C21.8862 12.8482 21.9572 12.6778 21.9572 12.5C21.9572 12.3222 21.8862 12.1518 21.76 12.0267L21.0933 11.32Z" fill="var(--fill-0, #121212)"/>
<g id="bounding_box:c2all">
</g>
</g>
</svg>
