<svg preserveAspectRatio="none" width="100%" height="100%" overflow="visible" style="display: block;" viewBox="0 0 13.8581 20" fill="none" xmlns="http://www.w3.org/2000/svg">
<g id="ico-/-24-/-GenAI-/-VoiceGen">
<path id="Vector" d="M7.00777 13.8581C4.87802 13.8581 3.14953 12.1336 3.14953 10.0087V3.84949C3.14953 1.72457 4.87802 0 7.00777 0C9.13751 0 10.866 1.72457 10.866 3.84949V10.0087C10.866 12.1336 9.13751 13.8581 7.00777 13.8581ZM9.32271 3.84949C9.32271 2.57659 8.28356 1.53979 7.00777 1.53979C5.73198 1.53979 4.69283 2.57659 4.69283 3.84949V10.0087C4.69283 11.2816 5.73198 12.3184 7.00777 12.3184C8.28356 12.3184 9.32271 11.2816 9.32271 10.0087V3.84949Z" fill="var(--fill-0, #ABAAAA)"/>
<path id="Vector_2" d="M1.53979 8.97648V10.0019C1.53979 12.9757 3.9624 15.3855 6.92907 15.3855C9.89574 15.3855 12.3184 12.9757 12.3184 10.0019V8.97648H13.8581V10.0019C13.8581 13.5602 11.1584 16.493 7.69897 16.8826V18.4618H10.0087V20H4.87601H3.84949V18.4618H4.87601H6.15918V16.8826C2.69977 16.5032 0 13.5602 0 10.0019V8.97648H1.53979Z" fill="var(--fill-0, #ABAAAA)"/>
</g>
</svg>
