<svg preserveAspectRatio="none" width="100%" height="100%" overflow="visible" style="display: block;" viewBox="0 0 18.6005 20" fill="none" xmlns="http://www.w3.org/2000/svg">
<g id="ico-/-24-/-GenAI-/-MockupGen">
<path id="Subtract (Stroke)" d="M17.3434 2.05143C17.3434 1.61286 16.9877 1.25711 16.5488 1.25711H14.23C13.6705 3.45827 11.6757 5.08679 9.30027 5.0868C6.92484 5.0868 4.93002 3.45838 4.37053 1.25711H2.05143C1.6127 1.25716 1.25716 1.6127 1.25711 2.05143V7.35882H4.813V17.3434H14.1978V7.35882H17.3434V2.05143ZM18.6005 8.61593H15.4549V18.6005H3.55589V8.61593H0V2.05143C4.9037e-05 0.918477 0.918476 4.91858e-05 2.05143 0H5.4709V0.000322501C5.47095 2.11525 7.18533 3.82969 9.30027 3.82969C11.4152 3.82968 13.1296 2.11497 13.1296 0H16.5488C17.6818 0 18.6005 0.918446 18.6005 2.05143V8.61593Z" fill="var(--fill-0, #ABAAAA)"/>
<path id="Vector 307 (Stroke)" d="M17.8981 15.398L12.7393 15.9358L10.0078 20L8.87136 9.30341L17.8981 15.398ZM10.7778 16.8928L12.1171 14.9008L14.7927 14.6214L10.2076 11.5256L10.7778 16.8928Z" fill="var(--fill-0, #ABAAAA)"/>
</g>
</svg>
