<svg preserveAspectRatio="none" width="100%" height="100%" overflow="visible" style="display: block;" viewBox="0 0 20 17.2698" fill="none" xmlns="http://www.w3.org/2000/svg">
<g id="ico-/-24-/-GenAI-/-ImageGen">
<path id="Ellipse 214 (Stroke)" d="M6.95679 3.04352C6.95679 2.08304 6.17807 1.30434 5.21759 1.30432C4.2571 1.30432 3.47839 2.08302 3.47839 3.04352C3.47842 4.004 4.25711 4.78272 5.21759 4.78272V6.08704L5.06104 6.08307C3.50477 6.00424 2.25692 4.75633 2.17804 3.20008L2.17407 3.04352C2.17407 1.36265 3.53672 0 5.21759 0L5.37415 0.00396729C6.98224 0.0854705 8.26111 1.41517 8.26111 3.04352L8.25714 3.20008C8.17564 4.80816 6.84592 6.08702 5.21759 6.08704V4.78272C6.17805 4.7827 6.95677 4.00398 6.95679 3.04352Z" fill="var(--fill-0, #ABAAAA)"/>
<path id="Subtract (Stroke)" d="M17.0718 15.9654V17.2697H2.92816V15.9654H17.0718ZM18.6957 14.3419V9.32907L15.8249 6.59347L8.64288 13.6L5.2655 10.305L1.30432 14.0141V14.3419L1.30646 14.4255C1.35005 15.2833 2.05938 15.9654 2.92816 15.9654V17.2697C1.31105 17.2697 7.87587e-05 15.959 0 14.3419V13.4486L5.28412 8.50113L8.64288 11.7778L15.8142 4.78195L20 8.7706V14.3419C19.9999 15.959 18.689 17.2697 17.0718 17.2697V15.9654C17.9406 15.9654 18.65 15.2833 18.6935 14.4255L18.6957 14.3419Z" fill="var(--fill-0, #ABAAAA)"/>
</g>
</svg>
