<svg preserveAspectRatio="none" width="100%" height="100%" overflow="visible" style="display: block;" viewBox="0 0 16 16" fill="none" xmlns="http://www.w3.org/2000/svg">
<g id="ico-/-24-/-media-&#38;-editing-/-magic_wand">
<path id="Icon-color" d="M11.2333 6.18L3.51333 13.9C3.45074 13.9631 3.36555 13.9986 3.27667 13.9986C3.18779 13.9986 3.10259 13.9631 3.04 13.9L2.1 12.96C2.0369 12.8974 2.0014 12.8122 2.0014 12.7233C2.0014 12.6345 2.0369 12.5493 2.1 12.4867L9.82 4.76667C9.88259 4.70356 9.96779 4.66807 10.0567 4.66807C10.1455 4.66807 10.2307 4.70356 10.2933 4.76667L11.2333 5.70667C11.2964 5.76926 11.3319 5.85445 11.3319 5.94333C11.3319 6.03221 11.2964 6.11741 11.2333 6.18ZM5.49333 3.93333C6.03464 4.19505 6.47161 4.63203 6.73333 5.17333C6.78096 5.267 6.87506 5.32803 6.98 5.33333H7.02C7.12495 5.32803 7.21904 5.267 7.26667 5.17333C7.52839 4.63203 7.96536 4.19505 8.50667 3.93333C8.60033 3.8857 8.66136 3.79161 8.66667 3.68667V3.64667C8.66136 3.54172 8.60033 3.44763 8.50667 3.4C7.96893 3.13876 7.53457 2.7044 7.27333 2.16667C7.22101 2.06382 7.11539 1.99904 7 1.99904C6.88461 1.99904 6.77899 2.06382 6.72667 2.16667C6.46543 2.7044 6.03107 3.13876 5.49333 3.4C5.39967 3.44763 5.33864 3.54172 5.33333 3.64667V3.68667C5.33864 3.79161 5.39967 3.8857 5.49333 3.93333ZM13.88 3.12C13.447 2.91265 13.0969 2.56491 12.8867 2.13333C12.843 2.05219 12.7588 2.00113 12.6667 2C12.5745 2.00113 12.4903 2.05219 12.4467 2.13333C12.239 2.56444 11.8911 2.9123 11.46 3.12C11.3734 3.15317 11.321 3.24146 11.3333 3.33333C11.3303 3.41812 11.381 3.49561 11.46 3.52667C11.8935 3.73657 12.2434 4.08655 12.4533 4.52C12.4868 4.60868 12.5719 4.66719 12.6667 4.66667C12.7504 4.66667 12.8273 4.62053 12.8667 4.54667C13.0748 4.11197 13.4253 3.76149 13.86 3.55333C13.9484 3.51687 14.0044 3.42886 14 3.33333C14.0051 3.24488 13.9583 3.16155 13.88 3.12ZM10.8267 9.26667C11.368 9.52839 11.8049 9.96536 12.0667 10.5067C12.1143 10.6003 12.2084 10.6614 12.3133 10.6667H12.3533C12.4583 10.6614 12.5524 10.6003 12.6 10.5067C12.8617 9.96536 13.2987 9.52839 13.84 9.26667C13.9337 9.21904 13.9947 9.12494 14 9.02V8.98C13.9947 8.87505 13.9337 8.78096 13.84 8.73333C13.3023 8.47209 12.8679 8.03774 12.6067 7.5C12.5543 7.39715 12.4487 7.33238 12.3333 7.33238C12.2179 7.33238 12.1123 7.39715 12.06 7.5C11.7988 8.03774 11.3644 8.47209 10.8267 8.73333C10.733 8.78096 10.672 8.87505 10.6667 8.98V9.02C10.672 9.12494 10.733 9.21904 10.8267 9.26667Z" fill="var(--fill-0, #707070)"/>
<g id="bounding_box:c2all">
</g>
</g>
</svg>
