<svg preserveAspectRatio="none" width="100%" height="100%" overflow="visible" style="display: block;" viewBox="0 0 24 24" fill="none" xmlns="http://www.w3.org/2000/svg">
<g id="ico-/-24-/-ai-labs">
<g id="Icon-color">
<path d="M13.3877 12.2503C13.3171 12.5685 13.0686 12.8171 12.7503 12.8877L9.4028 13.6317C8.52605 13.8266 8.52605 15.0762 9.4028 15.271L12.7503 16.0151C13.0686 16.0856 13.3171 16.3342 13.3877 16.6525L14.1318 20C14.3266 20.8767 15.5762 20.8767 15.7711 20L16.5151 16.6525C16.5857 16.3342 16.8342 16.0856 17.1525 16.0151L20.5 15.271C21.3768 15.0762 21.3768 13.8266 20.5 13.6317L17.1525 12.8877C16.8342 12.8171 16.5857 12.5685 16.5151 12.2503L15.7711 8.90279C15.5762 8.02603 14.3266 8.02603 14.1318 8.90279L13.3877 12.2503Z" fill="var(--fill-0, #191919)"/>
<path d="M5.26833 4.69562C5.14935 5.23243 4.7301 5.65168 4.19329 5.77066L2.46529 6.1545C1.8449 6.29189 1.8449 7.17572 2.46529 7.31311L4.19329 7.69696C4.7301 7.81593 5.14935 8.23519 5.26833 8.772L5.65217 10.5C5.78956 11.1204 6.67339 11.1204 6.81078 10.5L7.19462 8.772C7.3136 8.23519 7.73285 7.81593 8.26967 7.69696L9.99767 7.31311C10.618 7.17572 10.618 6.29189 9.99767 6.1545L8.26967 5.77066C7.73285 5.65168 7.3136 5.23243 7.19462 4.69562L6.81078 2.96762C6.67339 2.34724 5.78956 2.34724 5.65217 2.96762L5.26833 4.69562Z" fill="var(--fill-0, #191919)"/>
</g>
<g id="bounding_box:c2all">
</g>
</g>
</svg>
