<svg preserveAspectRatio="none" width="100%" height="100%" overflow="visible" style="display: block;" viewBox="0 0 27 27" fill="none" xmlns="http://www.w3.org/2000/svg">
<g id="ico-/-24-/-user-/-group_senior">
<path id="Icon-color" d="M15.7541 10.6875C15.7541 9.1342 17.0137 7.875 18.5674 7.875C20.1212 7.875 21.3808 9.1342 21.3808 10.6875C21.3808 12.2408 20.1212 13.5 18.5674 13.5C17.0137 13.5 15.7541 12.2408 15.7541 10.6875ZM10.1274 12.375C11.9919 12.375 13.5034 10.864 13.5034 9C13.5034 7.13604 11.9919 5.625 10.1274 5.625C8.26286 5.625 6.75136 7.13604 6.75136 9C6.75136 10.864 8.26286 12.375 10.1274 12.375ZM16.2605 16.4925C15.6879 15.3459 14.5152 14.6225 13.2333 14.625H7.02144C5.73957 14.6225 4.56685 15.3459 3.99428 16.4925L2.37379 19.7437C2.19827 20.092 2.21563 20.5062 2.41966 20.8385C2.62369 21.1708 2.9853 21.3738 3.37534 21.375H16.8794C17.2695 21.3738 17.6311 21.1708 17.8351 20.8385C18.0391 20.5062 18.0565 20.092 17.881 19.7437L16.2605 16.4925ZM24.633 19.7437L23.5639 17.6062C22.9901 16.4677 21.8234 15.7496 20.548 15.75H18.3986L19.8953 18.7425C20.3065 19.5608 20.3674 20.5109 20.0641 21.375H23.6315C24.0215 21.3738 24.3831 21.1708 24.5871 20.8385C24.7912 20.5062 24.8085 20.092 24.633 19.7437Z" fill="var(--fill-0, #8C8C8C)"/>
<g id="bounding_box:c2all">
</g>
</g>
</svg>
