<svg preserveAspectRatio="none" width="100%" height="100%" overflow="visible" style="display: block;" viewBox="0 0 12 12" fill="none" xmlns="http://www.w3.org/2000/svg">
<path id="Icon-color" d="M3.7002 0C3.86577 0.000105479 3.99996 0.134218 4 0.299805V1.0332C4 1.19882 3.86579 1.3329 3.7002 1.33301H1.63379C1.46824 1.33301 1.33322 1.46731 1.33301 1.63281V9.13281C1.33301 9.21872 1.36117 9.30522 1.38086 9.35547C1.39263 9.3854 1.41112 9.4135 1.43945 9.42871C1.51038 9.46663 1.61176 9.4668 1.66699 9.4668C1.74517 9.46673 1.82377 9.44356 1.875 9.41113C1.93037 9.37588 1.95527 9.30514 1.99512 9.25293L3.64941 7.08887C3.66085 7.07388 3.67026 7.05734 3.67969 7.04102C3.74213 6.93292 3.80927 6.93359 3.93359 6.93359C3.9947 6.93375 4.11126 6.9893 4.18164 7.0498C4.19417 7.06058 4.20524 7.07347 4.21484 7.08691L4.85254 7.98047C4.86163 7.9932 4.87027 8.00687 4.87793 8.02051C4.94111 8.13299 5.00781 8.13281 5.13379 8.13281C5.2122 8.13272 5.29061 8.10974 5.3418 8.07715C5.39681 8.04202 5.42154 7.972 5.46094 7.91992L6.84961 6.08887C6.86082 6.0741 6.87064 6.05806 6.87988 6.04199C6.94244 5.93326 7.00922 5.93359 7.13379 5.93359C7.2102 5.93368 7.28667 5.95505 7.33789 5.98633C7.39593 6.02189 7.42333 6.09525 7.46582 6.14844L10.0469 9.375C10.0601 9.39149 10.0713 9.40953 10.082 9.42773C10.144 9.53296 10.21 9.5332 10.333 9.5332C10.4189 9.5332 10.5054 9.50602 10.5557 9.48633C10.5856 9.47459 10.6136 9.45603 10.6289 9.42773C10.6669 9.35692 10.667 9.25558 10.667 9.2002V6.9668C10.667 6.80111 10.8011 6.66699 10.9668 6.66699H11.7002C11.8658 6.6671 12 6.80118 12 6.9668V10.667C11.9998 11.4 11.4 11.9998 10.667 12H1.33301C0.599972 11.9998 0.000243871 11.4 0 10.667V1.33301C0.000110966 0.599875 0.59989 0.000177546 1.33301 0H3.7002ZM4.33301 3.33301C4.86627 3.33301 5.33289 3.79976 5.33301 4.33301C5.33301 4.86634 4.86634 5.33301 4.33301 5.33301C3.79981 5.33282 3.33301 4.86623 3.33301 4.33301C3.33313 3.79987 3.79988 3.3332 4.33301 3.33301Z" fill="var(--fill-0, white)"/>
</svg>
