<svg preserveAspectRatio="none" width="100%" height="100%" overflow="visible" style="display: block;" viewBox="0 0 5.93333 5.93333" fill="none" xmlns="http://www.w3.org/2000/svg">
<path id="Icon-color" d="M5.63333 2.77619V3.15714C5.63333 3.26234 5.54805 3.34762 5.44286 3.34762H3.34762V5.44286C3.34762 5.54805 3.26234 5.63333 3.15714 5.63333H2.77619C2.67099 5.63333 2.58571 5.54805 2.58571 5.44286V3.34762H0.490476C0.385279 3.34762 0.3 3.26234 0.3 3.15714V2.77619C0.3 2.67099 0.385279 2.58571 0.490476 2.58571H2.58571V0.490476C2.58571 0.385279 2.67099 0.3 2.77619 0.3H3.15714C3.26234 0.3 3.34762 0.385279 3.34762 0.490476V2.58571H5.44286C5.54805 2.58571 5.63333 2.67099 5.63333 2.77619Z" fill="var(--fill-0, white)" stroke="var(--stroke-0, white)" stroke-width="0.6"/>
</svg>
