<svg preserveAspectRatio="none" width="100%" height="100%" overflow="visible" style="display: block;" viewBox="0 0 18 18" fill="none" xmlns="http://www.w3.org/2000/svg">
<g id="ico-/-24-/-media-&#38;-editing-/-palette">
<path id="Icon-color" d="M14.52 4.02L13.2825 2.7825C12.943 2.44131 12.4814 2.24965 12 2.25C11.1716 2.25 10.5 2.92157 10.5 3.75V4.9425C10.4987 5.24583 10.3149 5.51853 10.0341 5.63345C9.75341 5.74837 9.43111 5.68287 9.2175 5.4675L9.1275 5.3775C8.56441 4.81503 7.80089 4.49937 7.005 4.5H6C3.51472 4.5 1.5 6.51472 1.5 9V9.75C1.5 13.0637 4.18629 15.75 7.5 15.75H10.5C12.0913 15.75 13.6174 15.1179 14.7426 13.9926C15.8679 12.8674 16.5 11.3413 16.5 9.75V8.7975C16.5004 7.00529 15.7881 5.28649 14.52 4.02ZM4.875 10.5C4.25368 10.5 3.75 9.99632 3.75 9.375C3.75 8.75368 4.25368 8.25 4.875 8.25C5.49632 8.25 6 8.75368 6 9.375C6 9.99632 5.49632 10.5 4.875 10.5ZM7.125 13.5C6.50368 13.5 6 12.9963 6 12.375C6 11.7537 6.50368 11.25 7.125 11.25C7.74632 11.25 8.25 11.7537 8.25 12.375C8.25 12.9963 7.74632 13.5 7.125 13.5ZM10.875 13.5C10.2537 13.5 9.75 12.9963 9.75 12.375C9.75 11.7537 10.2537 11.25 10.875 11.25C11.4963 11.25 12 11.7537 12 12.375C12 12.9963 11.4963 13.5 10.875 13.5ZM13.125 10.5C12.5037 10.5 12 9.99632 12 9.375C12 8.75368 12.5037 8.25 13.125 8.25C13.7463 8.25 14.25 8.75368 14.25 9.375C14.25 9.99632 13.7463 10.5 13.125 10.5Z" fill="var(--fill-0, white)"/>
<g id="bounding_box:c2all">
</g>
</g>
</svg>
