<svg preserveAspectRatio="none" width="100%" height="100%" overflow="visible" style="display: block;" viewBox="0 0 13.3333 13.3333" fill="none" xmlns="http://www.w3.org/2000/svg">
<path id="Vector" d="M7.33333 8.66667H8.66667C9.03333 8.66667 9.34722 8.53611 9.60833 8.275C9.86944 8.01389 10 7.7 10 7.33333V6C10 5.63333 9.86944 5.31944 9.60833 5.05833C9.34722 4.79722 9.03333 4.66667 8.66667 4.66667H7.63333C7.46765 4.66667 7.33333 4.53235 7.33333 4.36667V3.63333C7.33333 3.46765 7.46765 3.33333 7.63333 3.33333H9.03333C9.19902 3.33333 9.33333 3.19902 9.33333 3.03333V2.3C9.33333 2.13431 9.19902 2 9.03333 2H7.33333C6.96667 2 6.65278 2.13056 6.39167 2.39167C6.13056 2.65278 6 2.96667 6 3.33333V7.33333C6 7.7 6.13056 8.01389 6.39167 8.275C6.65278 8.53611 6.96667 8.66667 7.33333 8.66667ZM7.33333 6.3C7.33333 6.13431 7.46765 6 7.63333 6H8.36667C8.53235 6 8.66667 6.13431 8.66667 6.3V7.03333C8.66667 7.19902 8.53235 7.33333 8.36667 7.33333H7.63333C7.46765 7.33333 7.33333 7.19902 7.33333 7.03333V6.3ZM4 10.6667C3.63333 10.6667 3.31944 10.5361 3.05833 10.275C2.79722 10.0139 2.66667 9.7 2.66667 9.33333V1.33333C2.66667 0.966667 2.79722 0.652778 3.05833 0.391667C3.31944 0.130556 3.63333 0 4 0H12C12.3667 0 12.6806 0.130556 12.9417 0.391667C13.2028 0.652778 13.3333 0.966667 13.3333 1.33333V9.33333C13.3333 9.7 13.2028 10.0139 12.9417 10.275C12.6806 10.5361 12.3667 10.6667 12 10.6667H4ZM4 9.03333C4 9.19902 4.13431 9.33333 4.3 9.33333H11.7C11.8657 9.33333 12 9.19902 12 9.03333V1.63333C12 1.46765 11.8657 1.33333 11.7 1.33333H4.3C4.13431 1.33333 4 1.46765 4 1.63333V9.03333ZM1.33333 13.3333C0.966667 13.3333 0.652778 13.2028 0.391667 12.9417C0.130556 12.6806 0 12.3667 0 12V2.96667C0 2.80098 0.134315 2.66667 0.3 2.66667H1.03333C1.19902 2.66667 1.33333 2.80098 1.33333 2.96667V11.7C1.33333 11.8657 1.46765 12 1.63333 12H10.3667C10.5324 12 10.6667 12.1343 10.6667 12.3V13.0333C10.6667 13.199 10.5324 13.3333 10.3667 13.3333H1.33333Z" fill="var(--fill-0, white)"/>
</svg>
