<svg preserveAspectRatio="none" width="100%" height="100%" overflow="visible" style="display: block;" viewBox="0 0 88.5 24" fill="none" xmlns="http://www.w3.org/2000/svg">
<g id="OpenAI_Logo 1" clip-path="url(#clip0_0_140)">
<path id="Vector" d="M27.5581 11.5388C27.5581 15.4628 30.0781 18.1988 33.5701 18.1988C37.0621 18.1988 39.5821 15.4628 39.5821 11.5388C39.5821 7.61484 37.0621 4.87885 33.5701 4.87885C30.0781 4.87885 27.5581 7.61484 27.5581 11.5388ZM37.2781 11.5388C37.2781 14.3468 35.7481 16.1648 33.5701 16.1648C31.3921 16.1648 29.8621 14.3468 29.8621 11.5388C29.8621 8.73084 31.3921 6.91285 33.5701 6.91285C35.7481 6.91285 37.2781 8.73084 37.2781 11.5388Z" fill="var(--fill-0, #666666)"/>
<path id="Vector_2" d="M46.0701 18.1988C48.7161 18.1988 50.2281 15.9668 50.2281 13.2848C50.2281 10.6028 48.7161 8.37085 46.0701 8.37085C44.8461 8.37085 43.9461 8.85685 43.3521 9.55885V8.55085H41.1921V21.2408H43.3521V17.0108C43.9461 17.7128 44.8461 18.1988 46.0701 18.1988ZM43.2981 13.0148C43.2981 11.2328 44.3061 10.2608 45.6381 10.2608C47.2041 10.2608 48.0501 11.4848 48.0501 13.2848C48.0501 15.0848 47.2041 16.3088 45.6381 16.3088C44.3061 16.3088 43.2981 15.3188 43.2981 13.5728V13.0148Z" fill="var(--fill-0, #666666)"/>
<path id="Vector_3" d="M56.0738 18.1989C57.9638 18.1989 59.4578 17.2089 60.1238 15.5529L58.2698 14.8508C57.9818 15.8229 57.1358 16.3629 56.0738 16.3629C54.6878 16.3629 53.7158 15.3729 53.5538 13.7528H60.1778V13.0328C60.1778 10.4408 58.7198 8.37085 55.9838 8.37085C53.2478 8.37085 51.4838 10.5128 51.4838 13.2848C51.4838 16.2008 53.3738 18.1989 56.0738 18.1989ZM55.9658 10.1888C57.3338 10.1888 57.9818 11.0888 57.9998 12.1328H53.6618C53.9858 10.8548 54.8498 10.1888 55.9658 10.1888Z" fill="var(--fill-0, #666666)"/>
<path id="Vector_4" d="M61.7985 18.0008H63.9585V12.4568C63.9585 11.1068 64.9485 10.3868 65.9205 10.3868C67.1085 10.3868 67.5765 11.2328 67.5765 12.4028V18.0008H69.7365V11.7729C69.7365 9.73885 68.5485 8.37085 66.5685 8.37085C65.3445 8.37085 64.4985 8.92885 63.9585 9.55885V8.55085H61.7985V18.0008Z" fill="var(--fill-0, #666666)"/>
<path id="Vector_5" d="M76.0629 5.07697L71.1669 18.001H73.4529L74.5509 15.049H80.1309L81.2469 18.001H83.5689L78.6729 5.07697H76.0629ZM77.3229 7.63297L79.3749 13.033H75.3069L77.3229 7.63297Z" fill="var(--fill-0, #666666)"/>
<path id="Vector_6" d="M87.2767 5.1145H84.9727V18.0385H87.2767V5.1145Z" fill="var(--fill-0, #666666)"/>
<path id="Vector_7" d="M22.2794 9.82359C22.8239 8.18934 22.6364 6.39909 21.7657 4.91259C20.4562 2.63259 17.8237 1.45959 15.2527 2.01159C14.1089 0.723094 12.4657 -0.00965626 10.7429 0.000843739C8.11493 -0.00515626 5.78318 1.68684 4.97468 4.18734C3.28643 4.53309 1.82918 5.58984 0.976433 7.08759C-0.342817 9.36159 -0.0420669 12.2281 1.72043 14.1781C1.17593 15.8123 1.36343 17.6026 2.23418 19.0891C3.54368 21.3691 6.17618 22.5421 8.74718 21.9901C9.89018 23.2786 11.5342 24.0113 13.2569 24.0001C15.8864 24.0068 18.2189 22.3133 19.0274 19.8106C20.7157 19.4648 22.1729 18.4081 23.0257 16.9103C24.3434 14.6363 24.0419 11.7721 22.2802 9.82209L22.2794 9.82359ZM13.2584 22.4318C12.2062 22.4333 11.1869 22.0651 10.3792 21.3908C10.4159 21.3713 10.4797 21.3361 10.5209 21.3106L15.2999 18.5506C15.5444 18.4118 15.6944 18.1516 15.6929 17.8703V11.1331L17.7127 12.2993C17.7344 12.3098 17.7487 12.3308 17.7517 12.3548V17.9341C17.7487 20.4151 15.7394 22.4266 13.2584 22.4318ZM3.59543 18.3046C3.06818 17.3941 2.87843 16.3268 3.05918 15.2911C3.09443 15.3121 3.15668 15.3503 3.20093 15.3758L7.97993 18.1358C8.22218 18.2776 8.52218 18.2776 8.76518 18.1358L14.5994 14.7668V17.0993C14.6009 17.1233 14.5897 17.1466 14.5709 17.1616L9.74018 19.9508C7.58843 21.1898 4.84043 20.4533 3.59618 18.3046H3.59543ZM2.33768 7.87284C2.86268 6.96084 3.69143 6.26334 4.67843 5.90109C4.67843 5.94234 4.67618 6.01509 4.67618 6.06609V11.5868C4.67468 11.8673 4.82468 12.1276 5.06843 12.2663L10.9027 15.6346L8.88293 16.8008C8.86268 16.8143 8.83718 16.8166 8.81468 16.8068L3.98318 14.0153C1.83593 12.7718 1.09943 10.0246 2.33693 7.87359L2.33768 7.87284ZM18.9322 11.7346L13.0979 8.36559L15.1177 7.20009C15.1379 7.18659 15.1634 7.18434 15.1859 7.19409L20.0174 9.98334C22.1684 11.2261 22.9057 13.9778 21.6629 16.1288C21.1372 17.0393 20.3092 17.7368 19.3229 18.0998V12.4141C19.3252 12.1336 19.1759 11.8741 18.9329 11.7346H18.9322ZM20.9422 8.70909C20.9069 8.68734 20.8447 8.64984 20.8004 8.62434L16.0214 5.86434C15.7792 5.72259 15.4792 5.72259 15.2362 5.86434L9.40193 9.23334V6.90084C9.40043 6.87684 9.41168 6.85359 9.43043 6.83859L14.2612 4.05159C16.4129 2.81034 19.1639 3.54909 20.4044 5.70159C20.9287 6.61059 21.1184 7.67484 20.9407 8.70909H20.9422ZM8.30393 12.8663L6.28343 11.7001C6.26168 11.6896 6.24743 11.6686 6.24443 11.6446V6.06534C6.24593 3.58134 8.26118 1.56834 10.7452 1.56984C11.7959 1.56984 12.8129 1.93884 13.6207 2.61084C13.5839 2.63034 13.5209 2.66559 13.4789 2.69109L8.69993 5.45109C8.45543 5.58984 8.30543 5.84934 8.30693 6.13059L8.30393 12.8648V12.8663ZM9.40118 10.5008L11.9999 9.00009L14.5987 10.5001V13.5008L11.9999 15.0008L9.40118 13.5008V10.5008Z" fill="var(--fill-0, #666666)"/>
</g>
<defs>
<clipPath id="clip0_0_140">
<rect width="88.5" height="24" fill="white"/>
</clipPath>
</defs>
</svg>
