<svg preserveAspectRatio="none" width="100%" height="100%" overflow="visible" style="display: block;" viewBox="0 0 95.25 24.0018" fill="none" xmlns="http://www.w3.org/2000/svg">
<g id="Kling" clip-path="url(#clip0_0_137)">
<path id="Vector" fill-rule="evenodd" clip-rule="evenodd" d="M22.6245 3.3423L22.704 3.42105L22.7062 3.4188C24.2362 4.9548 23.7975 8.04105 21.579 11.5398L25.9425 15.9048L25.755 16.2701C25.0217 17.7008 24.0285 18.9826 22.8262 20.0501C21.2428 21.4637 19.3315 22.4598 17.2657 22.9481L17.1907 22.9661L17.0835 22.9916L17.0062 23.0088L16.836 23.0463C16.7891 23.0561 16.7421 23.0654 16.695 23.0741L16.5892 23.0943C16.4767 23.1168 16.359 23.1378 16.2443 23.1573L16.1483 23.1716L16.0755 23.1806C15.9713 23.1948 15.87 23.2076 15.7665 23.2196C14.0466 23.4133 12.3051 23.2201 10.6694 22.6542C9.03374 22.0883 7.54524 21.164 6.31275 19.9488L6.24075 19.8791C4.70775 18.3431 5.142 15.2546 7.3635 11.7536L3 7.38855L3.1875 7.0233C3.91955 5.59199 4.91376 4.31081 6.1185 3.2463C7.34961 2.15103 8.77947 1.30218 10.3305 0.745803C10.6905 0.616053 11.067 0.502803 11.4367 0.406803C11.7415 0.325371 12.0495 0.256562 12.36 0.200553C12.465 0.179553 12.5835 0.157803 12.6982 0.138303C14.4881 -0.140743 16.3184 0.00375107 18.0423 0.560186C19.7662 1.11662 21.3356 2.06949 22.6245 3.3423ZM21.1492 3.5298H21.1448L21.1492 3.53205C19.6665 3.07305 17.3138 3.8148 14.8268 5.45355C16.719 4.9263 18.549 5.1993 19.7318 6.3828C20.8522 7.50555 21.159 9.20955 20.7345 10.9998C20.715 11.0958 20.6895 11.1918 20.6595 11.2901C22.6897 8.2188 23.3393 5.34555 22.0538 4.0623C22.0322 4.03955 22.0097 4.01778 21.9863 3.99705L21.9765 3.98805L21.9623 3.9753C21.9477 3.96469 21.9334 3.95369 21.9195 3.9423C21.9007 3.9273 21.882 3.9123 21.8618 3.8988L21.8303 3.8763C21.6251 3.72213 21.3946 3.60488 21.1492 3.5298ZM20.1315 10.4336C19.8697 11.9951 19.0065 13.5731 17.6978 14.8803C16.3928 16.1883 14.8117 17.0523 13.248 17.3163C11.7847 17.5638 10.5225 17.2413 9.69525 16.4163C8.87025 15.5906 8.54775 14.3328 8.79525 12.8621C9.057 11.3021 9.918 9.7233 11.2208 8.41755C11.2208 8.41755 11.223 8.41755 11.2282 8.41005L11.2328 8.40255C12.54 7.10355 14.115 6.2418 15.675 5.9808C17.1382 5.7333 18.3975 6.0543 19.2277 6.8808C20.0527 7.7058 20.3752 8.9658 20.1277 10.4343H20.1323L20.1315 10.4336ZM6.8715 4.08855C5.8756 4.96997 5.03689 6.01436 4.39125 7.17705L4.38375 7.1793L8.16975 10.9563C8.47875 10.5221 8.80725 10.0923 9.15975 9.6678C9.28275 9.52155 9.4095 9.37005 9.53925 9.2193L9.58875 9.16305L9.76875 8.96205C9.774 8.95755 9.77925 8.9478 9.77925 8.9478L9.81225 8.9103L9.8295 8.89005C9.86074 8.85577 9.89174 8.82127 9.9225 8.78655C9.9705 8.7333 10.0185 8.67855 10.0695 8.6268C10.0695 8.62155 10.077 8.61405 10.077 8.61405L10.158 8.52555C10.1779 8.50618 10.1972 8.48617 10.2158 8.46555C10.218 8.46105 10.2202 8.46105 10.2202 8.46105C10.2255 8.45805 10.2255 8.45355 10.2255 8.45355C10.2285 8.4498 10.233 8.4453 10.236 8.44005C10.2392 8.43558 10.2427 8.43132 10.2465 8.4273C10.2558 8.42043 10.2641 8.41236 10.2712 8.4033C10.2758 8.39816 10.2806 8.39315 10.2855 8.3883C10.3162 8.35755 10.353 8.32155 10.386 8.28555C10.4025 8.2638 10.4243 8.2428 10.446 8.22105L10.4767 8.18955C10.482 8.18205 10.4962 8.1678 10.4962 8.1678L10.554 8.1108L10.6665 7.9998L10.704 7.96005L10.746 7.9158C11.557 7.10268 12.4234 6.34662 13.3387 5.65305L13.4587 5.5653H13.4595V5.56455L13.461 5.5638L13.581 5.4753C13.716 5.3748 13.8495 5.27655 13.986 5.18055C14.1307 5.0823 14.277 4.9833 14.421 4.88805C16.3875 3.57705 18.3135 2.7903 19.8855 2.6343C17.7824 1.36549 15.3 0.876977 12.873 1.2543C12.768 1.2708 12.6675 1.28805 12.5595 1.3098C12.4913 1.3218 12.432 1.3338 12.372 1.3458L12.336 1.3533C11.7849 1.46726 11.2423 1.61938 10.7122 1.80855C9.2978 2.31509 7.99333 3.08917 6.8715 4.08855ZM7.08 19.3946C7.28925 19.5551 7.52925 19.6751 7.79775 19.7591H7.7925C9.285 20.2151 11.6288 19.4711 14.1068 17.8368C12.2168 18.3618 10.3905 18.0888 9.20775 16.9053C8.0925 15.7878 7.78575 14.0786 8.208 12.2883C8.22975 12.1923 8.253 12.0963 8.28225 11.9981C6.25275 15.0701 5.60475 17.9426 6.88875 19.2266C6.91725 19.2551 6.94875 19.2836 6.98175 19.3128C7.01325 19.3413 7.04475 19.3676 7.08 19.3946ZM24.549 16.1171V16.1186C23.9025 17.2796 23.0644 18.323 22.0703 19.2048C20.5824 20.5271 18.7832 21.4499 16.8412 21.8868L16.8173 21.8928L16.7527 21.9078C16.6798 21.9273 16.606 21.9433 16.5315 21.9558C16.4827 21.9663 16.434 21.9761 16.383 21.9836C16.2785 22.004 16.1735 22.0215 16.068 22.0361L15.9802 22.0511L15.8805 22.0638C15.8002 22.0743 15.7193 22.0856 15.6345 22.0938C13.3446 22.3519 11.0335 21.8476 9.05925 20.6591C10.5728 20.5098 12.4155 19.7711 14.3055 18.5493L14.4135 18.4788L14.5215 18.4076L14.6685 18.3086H14.6693L14.9535 18.1151C15.09 18.0191 15.2265 17.9208 15.3585 17.8203C15.4425 17.7603 15.522 17.7026 15.603 17.6426C16.5177 16.9476 17.3842 16.1913 18.1965 15.3791C18.216 15.3596 18.234 15.3393 18.2512 15.3206L18.2737 15.2951C18.3142 15.2576 18.3502 15.2208 18.3862 15.1848L18.4432 15.1278C18.4432 15.1278 18.4583 15.1128 18.4605 15.1053C18.468 15.0993 18.4755 15.0918 18.4822 15.0843C18.4852 15.081 18.4882 15.0777 18.4913 15.0746L18.5565 15.0101L18.6068 14.9576C18.6233 14.9418 18.6405 14.9246 18.657 14.9066C18.6617 14.9017 18.6662 14.8967 18.6705 14.8916C18.6777 14.8828 18.686 14.875 18.6953 14.8683C18.6993 14.8641 18.7031 14.8596 18.7065 14.8548C18.7097 14.8503 18.7132 14.8461 18.717 14.8421C18.717 14.8421 18.7245 14.8346 18.729 14.8323C18.7359 14.8252 18.7427 14.818 18.7493 14.8106L18.7695 14.7888L18.789 14.7701C18.7673 14.7918 18.7485 14.8151 18.729 14.8391L18.7755 14.7903L18.7762 14.7888C18.8092 14.7543 18.8407 14.7206 18.873 14.6883C18.873 14.6883 18.873 14.6808 18.8805 14.6808C18.9247 14.6336 18.9667 14.5863 19.0087 14.5383L19.0935 14.4438C19.1041 14.4359 19.113 14.4259 19.1198 14.4146L19.1677 14.3568L19.1797 14.3426C19.239 14.2803 19.2945 14.2166 19.3515 14.1528L19.41 14.0853C19.5037 13.9766 19.5975 13.8648 19.6905 13.7546L19.803 13.6203L19.8383 13.5768C19.8833 13.5206 19.9275 13.4651 19.9717 13.4118C20.0092 13.3668 20.046 13.3203 20.082 13.2738C20.3218 12.9701 20.5543 12.6608 20.7795 12.3461L24.549 16.1171ZM24.549 16.1171C24.549 16.1148 24.5505 16.1126 24.5535 16.1111V16.1231L24.549 16.1186H24.5505L24.549 16.1171ZM32.2125 4.7718H34.3665V18.3093H32.2125V4.7718ZM46.4978 4.7718H44.4878V18.3093H46.4978V4.7718ZM90.24 4.7718H92.25V18.3093H90.24V4.7718ZM80.997 4.7718L75.7965 18.3093H78.0158L79.3208 14.8698H85.557L86.862 18.3086H89.0813L83.8808 4.77105L80.997 4.7718ZM80.0835 12.8568L82.4363 6.65805L84.7898 12.8568H80.0835ZM48.2295 7.4958H50.2395V18.3071H48.2295V7.4958ZM50.2395 4.77255H48.2295V6.47655H50.2395V4.77255ZM53.982 8.78955C54.6247 8.06955 55.9297 7.4913 57.2205 7.4913C60.7875 7.4913 62.3775 9.82905 62.3775 12.6963V18.3071H60.3675V12.6971C60.3675 10.9346 59.415 9.50205 57.1748 9.50205C55.551 9.50205 54.087 10.3946 53.982 12.2118V18.3048H51.972V7.49355H53.982V8.78955ZM69.1523 7.4958C70.4558 7.4958 71.6542 7.9758 72.597 8.7858V7.4958H74.604V18.7533C74.604 21.6483 72.3352 24.0018 69.5452 24.0018H68.9842C66.5302 24.0018 64.4842 22.1831 64.023 19.7756H66.093C66.4988 21.0618 67.641 21.9911 68.9865 21.9911H69.5475C71.232 21.9911 72.5993 20.5413 72.5993 18.7533V17.6493C71.6565 18.4556 70.4565 18.9408 69.1515 18.9408C66.1418 18.9408 63.6945 16.3728 63.6945 13.2176C63.6945 10.0616 66.1425 7.4958 69.1523 7.4958ZM69.1523 16.9248C67.2495 16.9248 65.7022 15.2621 65.7022 13.2123C65.7022 11.1633 67.2495 9.4998 69.1523 9.4998C71.0543 9.4998 72.5993 11.1648 72.5993 13.2123C72.5993 15.2598 71.0528 16.9248 69.1523 16.9248ZM40.3965 4.77255H43.071L37.0913 11.4551L43.4723 18.3071H40.701L34.3688 11.4558L40.3965 4.77255Z" fill="var(--fill-0, #666666)"/>
</g>
<defs>
<clipPath id="clip0_0_137">
<rect width="95.25" height="24.0018" fill="white"/>
</clipPath>
</defs>
</svg>
